<svg width="275" height="24" viewBox="0 0 275 24" fill="none" xmlns="http://www.w3.org/2000/svg">
<path d="M12.4294 24C10.8368 24 9.31343 23.1111 7.85929 21.3333C6.40514 19.5556 4.951 16.8205 3.49686 13.094C2.52744 10.5641 1.35027 6.70085 0 1.53846L4.70865 0.102563C5.88581 4.64957 6.92448 8.13675 7.82466 10.5299C8.344 11.7949 8.82871 12.9573 9.31343 13.9487C9.76352 14.9402 10.179 15.7265 10.4906 16.2393C10.8022 16.7863 11.1138 17.2308 11.4254 17.6068C11.737 17.9829 11.9447 18.2564 12.0832 18.359C12.2217 18.4615 12.3256 18.5641 12.4294 18.6325C12.5333 18.5641 12.6372 18.4615 12.7757 18.359C12.8795 18.2564 13.0873 18.0513 13.3642 17.6752C13.6412 17.2991 13.9182 16.8547 14.2298 16.3419C14.5068 15.8291 14.853 15.1111 15.3031 14.1538C15.7186 13.1966 16.134 12.1368 16.5495 10.9402C17.4497 8.34188 18.3499 4.71795 19.2154 0.0683752C19.2154 0.0341876 19.2154 0.0341876 19.2154 0L23.9933 1.29914C23.9933 1.29914 23.9587 1.40171 23.9241 1.57265C23.8895 1.77778 23.8202 2.05128 23.7856 2.35897C23.7163 2.66667 23.6471 3.04273 23.5432 3.48718C23.4394 3.93162 23.3701 4.37607 23.2663 4.88889C23.1624 5.40171 23.0239 5.91453 22.8854 6.46154C22.7469 7.04274 22.6084 7.62393 22.4699 8.20513C22.2968 8.82051 22.1583 9.40171 22.0198 9.98291C21.8467 10.5641 21.6736 11.1453 21.5005 11.7265C21.3274 12.3077 21.1197 12.8547 20.9466 13.3333C19.6655 16.9915 18.3152 19.6581 16.9304 21.4017C15.5108 23.1453 14.0221 24 12.4294 24Z" fill="#4F46E5"/>
<path d="M26.2337 17.3966V14.6966H37.0307V17.3966H26.2337Z" fill="#4F46E5"/>
<path d="M50.5109 23.6876C49.0893 23.6876 47.7667 23.4266 46.543 22.9046C45.3374 22.3826 44.2846 21.6626 43.3849 20.7446C42.5031 19.8086 41.8103 18.7106 41.3065 17.4506C40.8026 16.1906 40.5507 14.8046 40.5507 13.2926C40.5507 11.7986 40.7936 10.4216 41.2795 9.16164C41.7833 7.88364 42.4851 6.78564 43.3849 5.86764C44.2846 4.93164 45.3374 4.21164 46.543 3.70764C47.7487 3.18564 49.0713 2.92464 50.5109 2.92464C51.9325 2.92464 53.2012 3.16764 54.3169 3.65364C55.4505 4.13964 56.4043 4.77864 57.1781 5.57064C57.9518 6.34464 58.5097 7.19064 58.8516 8.10864L55.9904 9.45863C55.5585 8.37863 54.8657 7.50564 53.912 6.83964C52.9762 6.15564 51.8425 5.81364 50.5109 5.81364C49.1793 5.81364 48.0006 6.12864 46.9749 6.75864C45.9492 7.38864 45.1484 8.26164 44.5726 9.37764C44.0147 10.4936 43.7358 11.7986 43.7358 13.2926C43.7358 14.7866 44.0147 16.1006 44.5726 17.2346C45.1484 18.3506 45.9492 19.2236 46.9749 19.8536C48.0006 20.4656 49.1793 20.7716 50.5109 20.7716C51.8425 20.7716 52.9762 20.4386 53.912 19.7726C54.8657 19.1066 55.5585 18.2336 55.9904 17.1536L58.8516 18.5036C58.5097 19.4036 57.9518 20.2496 57.1781 21.0416C56.4043 21.8336 55.4505 22.4726 54.3169 22.9586C53.2012 23.4446 51.9325 23.6876 50.5109 23.6876Z" fill="#4F46E5"/>
<path d="M68.3955 23.6876C66.9919 23.6876 65.7053 23.3546 64.5356 22.6886C63.3839 22.0226 62.4662 21.1136 61.7824 19.9616C61.0986 18.8096 60.7567 17.5046 60.7567 16.0466C60.7567 14.5706 61.0986 13.2656 61.7824 12.1316C62.4662 10.9796 63.3839 10.0796 64.5356 9.43164C65.6873 8.76564 66.9739 8.43264 68.3955 8.43264C69.8351 8.43264 71.1218 8.76564 72.2555 9.43164C73.4071 10.0796 74.3159 10.9796 74.9817 12.1316C75.6655 13.2656 76.0074 14.5706 76.0074 16.0466C76.0074 17.5226 75.6655 18.8366 74.9817 19.9886C74.2979 21.1406 73.3802 22.0496 72.2285 22.7156C71.0768 23.3636 69.7992 23.6876 68.3955 23.6876ZM68.3955 20.8526C69.2593 20.8526 70.0241 20.6456 70.6899 20.2316C71.3557 19.8176 71.8776 19.2506 72.2555 18.5306C72.6514 17.7926 72.8493 16.9646 72.8493 16.0466C72.8493 15.1286 72.6514 14.3096 72.2555 13.5896C71.8776 12.8696 71.3557 12.3026 70.6899 11.8886C70.0241 11.4746 69.2593 11.2676 68.3955 11.2676C67.5498 11.2676 66.785 11.4746 66.1012 11.8886C65.4354 12.3026 64.9045 12.8696 64.5086 13.5896C64.1307 14.3096 63.9418 15.1286 63.9418 16.0466C63.9418 16.9646 64.1307 17.7926 64.5086 18.5306C64.9045 19.2506 65.4354 19.8176 66.1012 20.2316C66.785 20.6456 67.5498 20.8526 68.3955 20.8526Z" fill="#4F46E5"/>
<path d="M78.7693 23.3636V8.75664H81.6845V11.9156L81.3066 11.4296C81.6125 10.4396 82.1704 9.69264 82.9801 9.18864C83.7899 8.68464 84.7167 8.43264 85.7604 8.43264C86.93 8.43264 87.9647 8.74764 88.8645 9.37764C89.7822 9.98964 90.3941 10.8086 90.7 11.8346L89.8362 11.9156C90.2681 10.7456 90.9249 9.87264 91.8067 9.29664C92.7064 8.72064 93.7321 8.43264 94.8838 8.43264C95.8915 8.43264 96.8003 8.66664 97.6101 9.13464C98.4378 9.60264 99.0947 10.2506 99.5805 11.0786C100.066 11.9066 100.309 12.8516 100.309 13.9136V23.3636H97.2592V14.7506C97.2592 14.0126 97.1242 13.3916 96.8543 12.8876C96.6023 12.3656 96.2424 11.9696 95.7746 11.6996C95.3247 11.4116 94.7939 11.2676 94.182 11.2676C93.5702 11.2676 93.0303 11.4116 92.5625 11.6996C92.0946 11.9696 91.7257 12.3656 91.4558 12.8876C91.1859 13.4096 91.0509 14.0306 91.0509 14.7506V23.3636H88.0277V14.7506C88.0277 14.0126 87.8928 13.3916 87.6228 12.8876C87.3709 12.3656 87.011 11.9696 86.5431 11.6996C86.0933 11.4116 85.5534 11.2676 84.9236 11.2676C84.3118 11.2676 83.7719 11.4116 83.304 11.6996C82.8362 11.9696 82.4673 12.3656 82.1974 12.8876C81.9454 13.4096 81.8195 14.0306 81.8195 14.7506V23.3636H78.7693Z" fill="#4F46E5"/>
<path d="M103.358 23.3636V8.75664H106.273V11.9156L105.895 11.4296C106.201 10.4396 106.759 9.69264 107.569 9.18864C108.379 8.68464 109.305 8.43264 110.349 8.43264C111.519 8.43264 112.553 8.74764 113.453 9.37764C114.371 9.98964 114.983 10.8086 115.289 11.8346L114.425 11.9156C114.857 10.7456 115.514 9.87264 116.395 9.29664C117.295 8.72064 118.321 8.43264 119.473 8.43264C120.48 8.43264 121.389 8.66664 122.199 9.13464C123.027 9.60264 123.683 10.2506 124.169 11.0786C124.655 11.9066 124.898 12.8516 124.898 13.9136V23.3636H121.848V14.7506C121.848 14.0126 121.713 13.3916 121.443 12.8876C121.191 12.3656 120.831 11.9696 120.363 11.6996C119.913 11.4116 119.383 11.2676 118.771 11.2676C118.159 11.2676 117.619 11.4116 117.151 11.6996C116.683 11.9696 116.314 12.3656 116.044 12.8876C115.775 13.4096 115.64 14.0306 115.64 14.7506V23.3636H112.616V14.7506C112.616 14.0126 112.481 13.3916 112.212 12.8876C111.96 12.3656 111.6 11.9696 111.132 11.6996C110.682 11.4116 110.142 11.2676 109.512 11.2676C108.9 11.2676 108.361 11.4116 107.893 11.6996C107.425 11.9696 107.056 12.3656 106.786 12.8876C106.534 13.4096 106.408 14.0306 106.408 14.7506V23.3636H103.358Z" fill="#4F46E5"/>
<path d="M134.803 23.6876C133.345 23.6876 132.05 23.3546 130.916 22.6886C129.8 22.0046 128.927 21.0866 128.298 19.9346C127.668 18.7646 127.353 17.4596 127.353 16.0196C127.353 14.5436 127.668 13.2386 128.298 12.1046C128.945 10.9706 129.809 10.0796 130.889 9.43164C131.969 8.76564 133.192 8.43264 134.56 8.43264C135.658 8.43264 136.638 8.62164 137.502 8.99964C138.366 9.37764 139.095 9.89964 139.688 10.5656C140.282 11.2136 140.732 11.9606 141.038 12.8066C141.362 13.6526 141.524 14.5526 141.524 15.5066C141.524 15.7406 141.515 15.9836 141.497 16.2356C141.479 16.4876 141.443 16.7216 141.389 16.9376H129.755V14.5076H139.661L138.204 15.6146C138.384 14.7326 138.321 13.9496 138.015 13.2656C137.727 12.5636 137.277 12.0146 136.665 11.6186C136.071 11.2046 135.37 10.9976 134.56 10.9976C133.75 10.9976 133.03 11.2046 132.4 11.6186C131.771 12.0146 131.285 12.5906 130.943 13.3466C130.601 14.0846 130.466 14.9846 130.538 16.0466C130.448 17.0366 130.583 17.9006 130.943 18.6386C131.321 19.3766 131.843 19.9526 132.508 20.3666C133.192 20.7806 133.966 20.9876 134.83 20.9876C135.712 20.9876 136.458 20.7896 137.07 20.3936C137.7 19.9976 138.195 19.4846 138.555 18.8546L141.038 20.0696C140.75 20.7536 140.3 21.3746 139.688 21.9326C139.095 22.4726 138.375 22.9046 137.529 23.2286C136.701 23.5346 135.792 23.6876 134.803 23.6876Z" fill="#4F46E5"/>
<path d="M144.285 23.3636V8.75664H147.2V11.6996L146.93 11.2676C147.254 10.3136 147.776 9.62964 148.496 9.21564C149.215 8.78364 150.079 8.56764 151.087 8.56764H151.978V11.3486H150.709C149.701 11.3486 148.882 11.6636 148.253 12.2936C147.641 12.9056 147.335 13.7876 147.335 14.9396V23.3636H144.285Z" fill="#4F46E5"/>
<path d="M160.785 23.6876C159.328 23.6876 158.032 23.3546 156.898 22.6886C155.783 22.0046 154.892 21.0866 154.226 19.9346C153.578 18.7826 153.254 17.4776 153.254 16.0196C153.254 14.5796 153.578 13.2836 154.226 12.1316C154.874 10.9796 155.765 10.0796 156.898 9.43164C158.032 8.76564 159.328 8.43264 160.785 8.43264C161.775 8.43264 162.702 8.61264 163.566 8.97263C164.429 9.31464 165.176 9.79164 165.806 10.4036C166.454 11.0156 166.931 11.7266 167.237 12.5366L164.564 13.7786C164.258 13.0226 163.764 12.4196 163.08 11.9696C162.414 11.5016 161.649 11.2676 160.785 11.2676C159.958 11.2676 159.211 11.4746 158.545 11.8886C157.897 12.2846 157.384 12.8516 157.006 13.5896C156.629 14.3096 156.44 15.1286 156.44 16.0466C156.44 16.9646 156.629 17.7926 157.006 18.5306C157.384 19.2506 157.897 19.8176 158.545 20.2316C159.211 20.6456 159.958 20.8526 160.785 20.8526C161.667 20.8526 162.432 20.6276 163.08 20.1776C163.746 19.7096 164.24 19.0886 164.564 18.3146L167.237 19.5836C166.949 20.3576 166.481 21.0596 165.833 21.6896C165.203 22.3016 164.456 22.7876 163.593 23.1476C162.729 23.5076 161.793 23.6876 160.785 23.6876Z" fill="#4F46E5"/>
<path d="M176.858 23.6876C175.4 23.6876 174.105 23.3546 172.971 22.6886C171.855 22.0046 170.983 21.0866 170.353 19.9346C169.723 18.7646 169.408 17.4596 169.408 16.0196C169.408 14.5436 169.723 13.2386 170.353 12.1046C171.001 10.9706 171.864 10.0796 172.944 9.43164C174.024 8.76564 175.247 8.43264 176.615 8.43264C177.713 8.43264 178.693 8.62164 179.557 8.99964C180.421 9.37764 181.15 9.89964 181.744 10.5656C182.337 11.2136 182.787 11.9606 183.093 12.8066C183.417 13.6526 183.579 14.5526 183.579 15.5066C183.579 15.7406 183.57 15.9836 183.552 16.2356C183.534 16.4876 183.498 16.7216 183.444 16.9376H171.81V14.5076H181.717L180.259 15.6146C180.439 14.7326 180.376 13.9496 180.07 13.2656C179.782 12.5636 179.332 12.0146 178.72 11.6186C178.127 11.2046 177.425 10.9976 176.615 10.9976C175.805 10.9976 175.085 11.2046 174.456 11.6186C173.826 12.0146 173.34 12.5906 172.998 13.3466C172.656 14.0846 172.521 14.9846 172.593 16.0466C172.503 17.0366 172.638 17.9006 172.998 18.6386C173.376 19.3766 173.898 19.9526 174.564 20.3666C175.247 20.7806 176.021 20.9876 176.885 20.9876C177.767 20.9876 178.513 20.7896 179.125 20.3936C179.755 19.9976 180.25 19.4846 180.61 18.8546L183.093 20.0696C182.805 20.7536 182.355 21.3746 181.744 21.9326C181.15 22.4726 180.43 22.9046 179.584 23.2286C178.756 23.5346 177.848 23.6876 176.858 23.6876Z" fill="#4F46E5"/>
<path d="M204.939 19.0342C203.991 19.0342 203.109 18.8602 202.293 18.5122C201.49 18.1642 200.788 17.6842 200.188 17.0722C199.6 16.4482 199.138 15.7162 198.802 14.8762C198.466 14.0362 198.298 13.1122 198.298 12.1042C198.298 11.1082 198.46 10.1902 198.784 9.35018C199.12 8.49818 199.588 7.76618 200.188 7.15418C200.788 6.53018 201.49 6.05018 202.293 5.71418C203.097 5.36618 203.979 5.19218 204.939 5.19218C205.886 5.19218 206.732 5.35418 207.476 5.67818C208.232 6.00218 208.868 6.42818 209.383 6.95618C209.899 7.47218 210.271 8.03618 210.499 8.64818L208.592 9.54818C208.304 8.82818 207.842 8.24618 207.206 7.80218C206.582 7.34618 205.826 7.11818 204.939 7.11818C204.051 7.11818 203.265 7.32818 202.581 7.74818C201.897 8.16818 201.364 8.75018 200.98 9.49418C200.608 10.2382 200.422 11.1082 200.422 12.1042C200.422 13.1002 200.608 13.9762 200.98 14.7322C201.364 15.4762 201.897 16.0582 202.581 16.4782C203.265 16.8862 204.051 17.0902 204.939 17.0902C205.826 17.0902 206.582 16.8682 207.206 16.4242C207.842 15.9802 208.304 15.3982 208.592 14.6782L210.499 15.5782C210.271 16.1782 209.899 16.7422 209.383 17.2702C208.868 17.7982 208.232 18.2242 207.476 18.5482C206.732 18.8722 205.886 19.0342 204.939 19.0342Z" fill="#64748B"/>
<path d="M212.593 18.8182V5.40818H217.469C218.369 5.40818 219.161 5.57618 219.845 5.91218C220.528 6.23618 221.062 6.71618 221.446 7.35218C221.842 7.97618 222.04 8.72618 222.04 9.60218C222.04 10.5262 221.806 11.3182 221.338 11.9782C220.882 12.6382 220.265 13.1182 219.485 13.4182L222.58 18.8182H220.169L216.875 12.9682L218.261 13.7782H214.716V18.8182H212.593ZM214.716 11.8882H217.505C217.997 11.8882 218.423 11.7922 218.783 11.6002C219.143 11.4082 219.419 11.1442 219.611 10.8082C219.815 10.4602 219.917 10.0522 219.917 9.58418C219.917 9.11618 219.815 8.71418 219.611 8.37818C219.419 8.03018 219.143 7.76618 218.783 7.58618C218.423 7.39418 217.997 7.29818 217.505 7.29818H214.716V11.8882Z" fill="#64748B"/>
<path d="M224.277 18.8182V5.40818H226.256L231.295 12.3922H230.305L235.254 5.40818H237.233V18.8182H235.128V7.91018L235.92 8.12618L230.863 15.0382H230.647L225.698 8.12618L226.4 7.91018V18.8182H224.277Z" fill="#64748B"/>
<path d="M246.857 19.0342C246.138 19.0342 245.46 18.9022 244.824 18.6382C244.2 18.3742 243.66 18.0022 243.204 17.5222C242.761 17.0422 242.443 16.4782 242.251 15.8302L244.05 15.1462C244.29 15.7822 244.656 16.2742 245.148 16.6222C245.64 16.9702 246.21 17.1442 246.857 17.1442C247.385 17.1442 247.841 17.0422 248.225 16.8382C248.621 16.6342 248.927 16.3462 249.143 15.9742C249.371 15.6022 249.485 15.1522 249.485 14.6242C249.485 14.1082 249.371 13.6642 249.143 13.2922C248.927 12.9202 248.621 12.6382 248.225 12.4462C247.841 12.2542 247.385 12.1582 246.857 12.1582C246.641 12.1582 246.419 12.1762 246.192 12.2122C245.976 12.2482 245.784 12.2962 245.616 12.3562L245.148 11.3662L248.675 7.20818H242.97V5.40818H251.05V7.11818L247.595 11.2582L247.541 10.5742C248.345 10.5862 249.053 10.7662 249.665 11.1142C250.276 11.4502 250.75 11.9182 251.086 12.5182C251.434 13.1062 251.608 13.7902 251.608 14.5702C251.608 15.4102 251.404 16.1722 250.996 16.8562C250.588 17.5282 250.024 18.0622 249.305 18.4582C248.597 18.8422 247.781 19.0342 246.857 19.0342Z" fill="#64748B"/>
<path d="M257.912 19.0342C257.036 19.0342 256.257 18.8422 255.573 18.4582C254.889 18.0742 254.349 17.5462 253.953 16.8742C253.569 16.2022 253.377 15.4402 253.377 14.5882C253.377 14.1442 253.425 13.7002 253.521 13.2562C253.617 12.8122 253.785 12.3502 254.025 11.8702C254.277 11.3902 254.613 10.8742 255.033 10.3222L258.776 5.40818H261.313L256.725 11.3482L256.365 11.1142C256.533 10.9222 256.713 10.7722 256.904 10.6642C257.108 10.5562 257.318 10.4782 257.534 10.4302C257.762 10.3822 258.002 10.3582 258.254 10.3582C259.058 10.3582 259.778 10.5442 260.414 10.9162C261.049 11.2882 261.547 11.7922 261.907 12.4282C262.279 13.0642 262.465 13.7962 262.465 14.6242C262.465 15.4642 262.267 16.2202 261.871 16.8922C261.475 17.5522 260.935 18.0742 260.252 18.4582C259.58 18.8422 258.8 19.0342 257.912 19.0342ZM257.912 17.1442C258.38 17.1442 258.794 17.0362 259.154 16.8202C259.514 16.6042 259.802 16.3102 260.018 15.9382C260.234 15.5542 260.342 15.1222 260.342 14.6422C260.342 14.1502 260.234 13.7182 260.018 13.3462C259.814 12.9742 259.526 12.6862 259.154 12.4822C258.794 12.2662 258.38 12.1582 257.912 12.1582C257.456 12.1582 257.042 12.2662 256.671 12.4822C256.311 12.6862 256.023 12.9742 255.807 13.3462C255.591 13.7182 255.483 14.1502 255.483 14.6422C255.483 15.1222 255.591 15.5542 255.807 15.9382C256.023 16.3102 256.311 16.6042 256.671 16.8202C257.042 17.0362 257.456 17.1442 257.912 17.1442Z" fill="#64748B"/>
<path d="M269.673 19.0342C268.606 19.0342 267.67 18.7462 266.866 18.1702C266.062 17.5822 265.433 16.7722 264.977 15.7402C264.533 14.6962 264.311 13.4842 264.311 12.1042C264.311 10.7122 264.533 9.50018 264.977 8.46818C265.433 7.43618 266.056 6.63218 266.848 6.05618C267.652 5.48018 268.588 5.19218 269.655 5.19218C270.723 5.19218 271.653 5.48018 272.445 6.05618C273.248 6.63218 273.872 7.44218 274.316 8.48618C274.772 9.51818 275 10.7242 275 12.1042C275 13.4842 274.778 14.6962 274.334 15.7402C273.89 16.7722 273.266 17.5822 272.463 18.1702C271.671 18.7462 270.741 19.0342 269.673 19.0342ZM269.673 17.0902C270.333 17.0902 270.903 16.8862 271.383 16.4782C271.863 16.0702 272.235 15.4942 272.499 14.7502C272.763 14.0062 272.895 13.1242 272.895 12.1042C272.895 11.0842 272.763 10.2022 272.499 9.45818C272.235 8.71418 271.863 8.13818 271.383 7.73018C270.903 7.32218 270.327 7.11818 269.655 7.11818C268.996 7.11818 268.426 7.32218 267.946 7.73018C267.466 8.13818 267.094 8.71418 266.83 9.45818C266.566 10.2022 266.434 11.0842 266.434 12.1042C266.434 13.1122 266.566 13.9942 266.83 14.7502C267.094 15.4942 267.466 16.0702 267.946 16.4782C268.438 16.8862 269.014 17.0902 269.673 17.0902Z" fill="#64748B"/>
</svg>
